<svg id="Group_332" data-name="Group 332" xmlns="http://www.w3.org/2000/svg" width="53.981" height="64.8" viewBox="0 0 53.981 64.8">
  <g id="Group_176" data-name="Group 176" transform="translate(17.152 36.825)">
    <path id="Path_346" data-name="Path 346" d="M50.258,85.158A28.788,28.788,0,0,0,55.285,88.6a1.221,1.221,0,0,0,.546.164.923.923,0,0,0,.546-.164,29.657,29.657,0,0,0,4.7-3.224,16.3,16.3,0,0,0,3.278-3.551A6.756,6.756,0,0,0,65.5,76.744a6.167,6.167,0,0,0-1.366-2.95A5.089,5.089,0,0,0,60.148,72.1h-.219a5.21,5.21,0,0,0-4.1,1.967,5.642,5.642,0,0,0-1.366-1.147,5.989,5.989,0,0,0-3.551-.765,5.123,5.123,0,0,0-3.551,1.912A6.392,6.392,0,0,0,46,78.165a6.914,6.914,0,0,0,1.257,3.77A15.712,15.712,0,0,0,50.258,85.158Z" transform="translate(-45.992 -72.1)" fill="#ed1e79"/>
  </g>
  <g id="Group_177" data-name="Group 177" transform="translate(17.152)">
    <path id="Path_347" data-name="Path 347" d="M50.258,17.758A28.788,28.788,0,0,0,55.285,21.2a1.221,1.221,0,0,0,.546.164.923.923,0,0,0,.546-.164,29.656,29.656,0,0,0,4.7-3.224,16.3,16.3,0,0,0,3.278-3.551A6.756,6.756,0,0,0,65.5,9.344a6.167,6.167,0,0,0-1.366-2.95A5.089,5.089,0,0,0,60.148,4.7h-.219a5.21,5.21,0,0,0-4.1,1.967A5.642,5.642,0,0,0,54.465,5.52a5.989,5.989,0,0,0-3.551-.765,5.123,5.123,0,0,0-3.551,1.912A6.392,6.392,0,0,0,46,10.765a6.914,6.914,0,0,0,1.257,3.77A17.27,17.27,0,0,0,50.258,17.758Z" transform="translate(-45.992 -4.7)" fill="#ed1e79"/>
  </g>
  <g id="Group_178" data-name="Group 178" transform="translate(0 9.398)">
    <path id="Path_348" data-name="Path 348" d="M60.5,21.9H54.267a9.2,9.2,0,0,1-1.2,2.295,17.257,17.257,0,0,1-2.623,3.114h6.72l2.677,5.409h-36.5l2.677-5.409H32.63A18.322,18.322,0,0,1,30.062,24.3a15.929,15.929,0,0,1-1.2-2.349H22.686L14.6,38.127V77.3H68.581V38.127Zm2.677,49.993H20.009V43.536H63.227V71.893Z" transform="translate(-14.6 -21.9)" fill="#ed1e79"/>
  </g>
</svg>
